HIERARCHY
ROOT Hips
{
 OFFSET 0.000000 0.000000 0.000000
 CHANNELS 6 Xposition Yposition Zposition Zrotation Xrotation Yrotation
 JOINT Chest
 {
  OFFSET 0.000000 4.000000 0.000000
  CHANNELS 3 Zrotation Xrotation Yrotation
  JOINT Head
  {
   OFFSET 0.000000 24.803150 0.000000
   CHANNELS 3 Zrotation Xrotation Yrotation
   End Site
   {
    OFFSET 0.000000 9.448819 0.000000
   }
  }
  JOINT LeftUpArm
  {
   OFFSET 7.086614 23.228346 0.000000
   CHANNELS 3 Zrotation Xrotation Yrotation
   JOINT LeftLowArm
   {
    OFFSET 0.000000 -11.811024 0.000000
    CHANNELS 3 Zrotation Xrotation Yrotation
    End Site
    {
     OFFSET 0.000000 -11.811024 0.000000
    }
   }
  }
  JOINT RightUpArm
  {
   OFFSET -7.086614 23.228346 0.000000
   CHANNELS 3 Zrotation Xrotation Yrotation
   JOINT RightLowArm
   {
    OFFSET 0.000000 -11.811024 0.000000
    CHANNELS 3 Zrotation Xrotation Yrotation
    End Site
    {
     OFFSET 0.000000 -11.811024 0.000000
    }
   }
  }
 }
 JOINT LeftUpLeg
 {
  OFFSET 3.937008 0.000000 0.000000
  CHANNELS 3 Zrotation Xrotation Yrotation
  JOINT LeftLowLeg
  {
   OFFSET 0.000000 -16.929134 0.000000
   CHANNELS 3 Zrotation Xrotation Yrotation
   End Site
   {
    OFFSET 0.000000 -19.685040 0.000000
   }
  }
 }
 JOINT RightUpLeg
 {
  OFFSET -3.937008 0.000000 0.000000
  CHANNELS 3 Zrotation Xrotation Yrotation
  JOINT RightLowLeg
  {
   OFFSET 0.000000 -16.929134 0.000000
   CHANNELS 3 Zrotation Xrotation Yrotation
   End Site
   {
    OFFSET 0.000000 -19.685040 0.000000
   }
  }
 }
}
MOTION
Frames: 11      
Frame Time: 0.033333
-185.920715 4.297983 50.424389 -7.929730 0.283686 86.995651 -2.110237 8.353801 1.864601 3.745697 0.106513 23.706295 8.406234 -12.840166 -8.418695 0.199338 -5.508840 -18.455616 -4.671454 -4.128019 9.129716 -1.210464 -2.128083 7.153964 4.516024 -30.408491 5.543522 -4.936493 30.229496 -5.641909 -4.358826 -20.908266 -19.033710 -32.742180 64.000504 25.543165
-185.252716 4.421033 50.415600 -8.194503 0.107817 87.450684 -1.805770 8.484991 1.570480 3.462307 -0.008145 24.172668 9.390289 -14.621670 -7.965798 -0.587913 -6.801314 -18.021173 -4.874940 -4.581995 9.218885 -1.347986 -2.369436 6.746855 4.533479 -29.023844 5.723273 -4.947290 29.061638 -5.887465 -4.159724 -23.921986 -17.742590 -31.906679 65.898598 23.746744
-184.004639 4.631977 50.406811 -8.614490 -0.243223 88.109352 -1.313555 8.725697 1.576050 3.041249 -0.187442 24.743200 11.975998 -18.807173 -6.402638 -1.784537 -10.166160 -17.415520 -5.054486 -5.050516 8.870655 -1.274594 -2.875675 6.463465 4.698576 -26.236822 6.385940 -5.574084 27.694160 -4.869705 -2.702245 -29.586706 -12.970263 -24.893112 66.856911 15.267687
-183.442123 4.675924 50.415600 -8.778764 -0.303968 88.382545 -1.184664 8.805442 1.749108 2.944678 -0.334007 25.025593 13.580147 -21.343773 -5.380847 -2.091897 -11.844966 -17.165680 -5.138126 -5.174591 8.504290 -1.189426 -2.971585 6.443100 4.751033 -24.861094 6.693359 -5.653493 27.051689 -4.680161 -2.012747 -32.267151 -10.741947 -20.255259 66.267242 10.155709
-182.097351 4.763817 50.503494 -9.050447 -0.490362 89.406723 -0.899890 8.852501 1.677551 2.948633 -0.611466 25.599625 17.419785 -27.239929 -2.873190 -1.973370 -14.271117 -16.422190 -5.352448 -4.816486 7.608006 -0.883593 -3.167801 6.633990 4.466422 -22.235441 6.014432 -5.694160 25.358286 -4.802907 -1.237240 -36.400009 -7.872184 -10.970567 61.042362 1.241558
-181.438156 4.746239 50.538651 -9.127460 -0.477528 89.809219 -0.912634 8.876087 1.739939 2.960441 -0.658062 25.865133 19.645390 -30.544258 -1.313343 -1.631777 -14.862351 -15.737987 -5.416808 -4.548425 7.388055 -0.774087 -2.995276 6.607411 4.329556 -20.889030 5.524158 -5.725764 24.495075 -4.825902 -1.123493 -38.008003 -7.274176 -6.519293 57.447178 -3.755628
-179.987915 4.614398 50.670490 -9.170893 -0.278265 90.742630 -0.910130 8.930047 1.624784 2.903248 -0.836309 26.281239 24.882500 -37.084381 3.089058 -0.974266 -15.097502 -14.393597 -5.691031 -3.921953 6.617120 -0.387743 -2.288337 7.235675 3.557907 -17.945469 4.396756 -5.457317 23.495371 -4.990433 -1.320328 -40.104446 -7.768383 -3.122634 44.798359 -3.076765
-179.232025 4.544084 50.696861 -9.121374 -0.120507 91.124931 -0.939388 8.992681 1.606996 2.831042 -0.890736 26.405628 28.148066 -40.076340 5.952859 -0.686343 -15.021655 -13.696016 -5.804785 -3.577252 6.086335 -0.395871 -1.755943 7.658995 3.179952 -16.337740 3.914976 -5.288797 23.679741 -5.071445 -1.243484 -40.641697 -8.124649 -6.016769 37.641563 3.224754
-177.606003 4.236457 50.863857 -8.885569 0.402842 91.849930 -1.117398 9.142776 1.407266 2.733359 -1.086051 26.875153 35.653282 -44.879711 12.638394 0.113344 -14.843679 -12.256151 -6.078486 -2.796411 4.665297 -0.846388 -0.679255 8.639164 2.150005 -12.532667 2.857835 -4.879251 22.576769 -5.066971 -1.259898 -40.976658 -9.480297 -11.131565 27.190035 7.050974
-176.727066 4.139775 50.951752 -8.720036 0.552302 92.281273 -1.077876 9.228182 1.173047 2.703812 -1.258460 26.957361 39.866962 -46.699932 16.316019 0.690434 -14.738489 -11.669486 -6.217494 -2.343003 3.669970 -1.055766 -0.382294 9.146882 1.853916 -10.489573 2.474012 -4.673256 22.229195 -5.291057 -1.215359 -40.955601 -9.642159 -11.995210 22.852707 7.904429
-175.821777 3.955199 51.057220 -8.501818 0.873061 92.730072 -1.099939 9.335149 0.777843 2.488136 -1.353639 27.211281 44.141125 -48.057278 20.097519 1.314178 -14.655962 -11.258048 -6.471398 -1.845893 2.822778 -1.337128 -0.107377 9.469144 1.506821 -8.342485 2.151881 -4.312943 21.969774 -5.471250 -1.176486 -40.776642 -9.406696 -11.651741 20.147409 8.358205
